<svg width="1600" height="900" viewBox="0 0 1600 900" xmlns="http://www.w3.org/2000/svg">
  <defs>
    <linearGradient id="night-sky" x1="0" y1="0" x2="0" y2="1">
      <stop offset="0%" stop-color="#021019" />
      <stop offset="60%" stop-color="#05121A" />
      <stop offset="100%" stop-color="#031016" />
    </linearGradient>
    <radialGradient id="pitch-glow" cx="0.5" cy="0.65" r="0.6">
      <stop offset="0" stop-color="rgba(14,143,72,0.55)" />
      <stop offset="1" stop-color="rgba(5,18,26,0)" />
    </radialGradient>
    <linearGradient id="stand-light" x1="0" y1="0" x2="1" y2="0">
      <stop offset="0" stop-color="rgba(246,201,76,0.65)" />
      <stop offset="1" stop-color="rgba(208,60,52,0.4)" />
    </linearGradient>
  </defs>
  <rect width="1600" height="900" fill="url(#night-sky)" />
  <ellipse cx="800" cy="640" rx="620" ry="210" fill="url(#pitch-glow)" />
  <g opacity="0.4">
    <path d="M120 520 C480 380 1120 380 1480 520" stroke="url(#stand-light)" stroke-width="12" stroke-linecap="round" fill="none" />
    <path d="M120 570 C480 430 1120 430 1480 570" stroke="rgba(246,201,76,0.28)" stroke-width="10" stroke-linecap="round" fill="none" />
    <path d="M120 620 C480 480 1120 480 1480 620" stroke="rgba(246,201,76,0.18)" stroke-width="8" stroke-linecap="round" fill="none" />
  </g>
  <g opacity="0.12">
    <circle cx="420" cy="220" r="90" fill="#F6C94C" />
    <circle cx="1180" cy="180" r="120" fill="#D03C34" />
    <circle cx="940" cy="260" r="80" fill="#0E8F48" />
  </g>
  <g opacity="0.25" stroke="#0E8F48" stroke-width="1.5">
    <ellipse cx="800" cy="640" rx="540" ry="180" fill="none" />
    <ellipse cx="800" cy="640" rx="420" ry="140" fill="none" />
    <ellipse cx="800" cy="640" rx="300" ry="100" fill="none" />
  </g>
  <g opacity="0.2" stroke="rgba(249,246,238,0.3)" stroke-width="1">
    <line x1="0" y1="680" x2="1600" y2="680" />
    <line x1="0" y1="720" x2="1600" y2="720" />
    <line x1="0" y1="760" x2="1600" y2="760" />
  </g>
</svg>
